<?xml version="1.0" encoding="utf-8" standalone="no"?>
<!DOCTYPE svg PUBLIC "-//W3C//DTD SVG 1.1//EN"
  "http://www.w3.org/Graphics/SVG/1.1/DTD/svg11.dtd">
<!-- Created with matplotlib (http://matplotlib.org/) -->
<svg height="576pt" version="1.1" viewBox="0 0 432 576" width="432pt" xmlns="http://www.w3.org/2000/svg" xmlns:xlink="http://www.w3.org/1999/xlink">
 <defs>
  <style type="text/css">
*{stroke-linecap:butt;stroke-linejoin:round;}
  </style>
 </defs>
 <g id="figure_1">
  <g id="patch_1">
   <path d="M 0 576 
L 432 576 
L 432 0 
L 0 0 
z
" style="fill:#ffffff;"/>
  </g>
  <g id="axes_1">
   <g id="patch_2">
    <path d="M 54 504 
L 388.8 504 
L 388.8 69.12 
L 54 69.12 
z
" style="fill:#ffffff;"/>
   </g>
   <g id="PathCollection_1">
    <defs>
     <path d="M 0 2.738613 
C 0.726289 2.738613 1.422928 2.450055 1.936492 1.936492 
C 2.450055 1.422928 2.738613 0.726289 2.738613 0 
C 2.738613 -0.726289 2.450055 -1.422928 1.936492 -1.936492 
C 1.422928 -2.450055 0.726289 -2.738613 0 -2.738613 
C -0.726289 -2.738613 -1.422928 -2.450055 -1.936492 -1.936492 
C -2.450055 -1.422928 -2.738613 -0.726289 -2.738613 0 
C -2.738613 0.726289 -2.450055 1.422928 -1.936492 1.936492 
C -1.422928 2.450055 -0.726289 2.738613 0 2.738613 
z
" id="meb0b3c6c78" style="stroke:#000000;"/>
    </defs>
    <g clip-path="url(#p041fc9d3df)">
     <use style="stroke:#000000;" x="71.95678" xlink:href="#meb0b3c6c78" y="478.86165"/>
     <use style="stroke:#000000;" x="81.919661" xlink:href="#meb0b3c6c78" y="477.961424"/>
     <use style="stroke:#000000;" x="91.882543" xlink:href="#meb0b3c6c78" y="476.89236"/>
     <use style="stroke:#000000;" x="101.845424" xlink:href="#meb0b3c6c78" y="474.789869"/>
     <use style="stroke:#000000;" x="111.808305" xlink:href="#meb0b3c6c78" y="472.22592"/>
     <use style="stroke:#000000;" x="121.771187" xlink:href="#meb0b3c6c78" y="468.587071"/>
     <use style="stroke:#000000;" x="131.734068" xlink:href="#meb0b3c6c78" y="463.840695"/>
     <use style="stroke:#000000;" x="141.696949" xlink:href="#meb0b3c6c78" y="459.027782"/>
     <use style="stroke:#000000;" x="151.659831" xlink:href="#meb0b3c6c78" y="451.288807"/>
     <use style="stroke:#000000;" x="161.622712" xlink:href="#meb0b3c6c78" y="442.768582"/>
     <use style="stroke:#000000;" x="171.585593" xlink:href="#meb0b3c6c78" y="433.376202"/>
     <use style="stroke:#000000;" x="181.548475" xlink:href="#meb0b3c6c78" y="422.117106"/>
     <use style="stroke:#000000;" x="191.511356" xlink:href="#meb0b3c6c78" y="409.247311"/>
     <use style="stroke:#000000;" x="201.474237" xlink:href="#meb0b3c6c78" y="394.086442"/>
     <use style="stroke:#000000;" x="211.437119" xlink:href="#meb0b3c6c78" y="378.492659"/>
     <use style="stroke:#000000;" x="221.4" xlink:href="#meb0b3c6c78" y="360.87013"/>
     <use style="stroke:#000000;" x="231.362881" xlink:href="#meb0b3c6c78" y="343.575205"/>
     <use style="stroke:#000000;" x="241.325763" xlink:href="#meb0b3c6c78" y="325.370098"/>
     <use style="stroke:#000000;" x="251.288644" xlink:href="#meb0b3c6c78" y="308.849854"/>
     <use style="stroke:#000000;" x="261.251525" xlink:href="#meb0b3c6c78" y="292.931976"/>
     <use style="stroke:#000000;" x="271.214407" xlink:href="#meb0b3c6c78" y="277.581039"/>
     <use style="stroke:#000000;" x="281.177288" xlink:href="#meb0b3c6c78" y="264.679235"/>
     <use style="stroke:#000000;" x="291.140169" xlink:href="#meb0b3c6c78" y="252.684728"/>
     <use style="stroke:#000000;" x="301.103051" xlink:href="#meb0b3c6c78" y="242.043448"/>
     <use style="stroke:#000000;" x="311.065932" xlink:href="#meb0b3c6c78" y="233.323392"/>
     <use style="stroke:#000000;" x="321.028813" xlink:href="#meb0b3c6c78" y="229.466837"/>
     <use style="stroke:#000000;" x="330.991695" xlink:href="#meb0b3c6c78" y="228.517238"/>
     <use style="stroke:#000000;" x="340.954576" xlink:href="#meb0b3c6c78" y="228.287691"/>
     <use style="stroke:#000000;" x="350.917457" xlink:href="#meb0b3c6c78" y="227.804917"/>
     <use style="stroke:#000000;" x="360.880339" xlink:href="#meb0b3c6c78" y="227.173425"/>
     <use style="stroke:#000000;" x="370.84322" xlink:href="#meb0b3c6c78" y="226.683776"/>
    </g>
   </g>
   <g id="PathCollection_2">
    <defs>
     <path d="M -2.738613 2.738613 
L 2.738613 -2.738613 
M -2.738613 -2.738613 
L 2.738613 2.738613 
" id="mc0ab072b0e" style="stroke:#000000;stroke-width:1.5;"/>
    </defs>
    <g clip-path="url(#p041fc9d3df)">
     <use style="stroke:#000000;stroke-width:1.5;" x="71.95678" xlink:href="#mc0ab072b0e" y="478.86165"/>
     <use style="stroke:#000000;stroke-width:1.5;" x="81.919661" xlink:href="#mc0ab072b0e" y="478.86165"/>
     <use style="stroke:#000000;stroke-width:1.5;" x="91.882543" xlink:href="#mc0ab072b0e" y="477.425379"/>
     <use style="stroke:#000000;stroke-width:1.5;" x="101.845424" xlink:href="#mc0ab072b0e" y="477.069699"/>
     <use style="stroke:#000000;stroke-width:1.5;" x="111.808305" xlink:href="#mc0ab072b0e" y="475.835263"/>
     <use style="stroke:#000000;stroke-width:1.5;" x="121.771187" xlink:href="#mc0ab072b0e" y="474.099314"/>
     <use style="stroke:#000000;stroke-width:1.5;" x="131.734068" xlink:href="#mc0ab072b0e" y="473.413772"/>
     <use style="stroke:#000000;stroke-width:1.5;" x="141.696949" xlink:href="#mc0ab072b0e" y="471.38651"/>
     <use style="stroke:#000000;stroke-width:1.5;" x="151.659831" xlink:href="#mc0ab072b0e" y="469.56566"/>
     <use style="stroke:#000000;stroke-width:1.5;" x="161.622712" xlink:href="#mc0ab072b0e" y="467.458055"/>
     <use style="stroke:#000000;stroke-width:1.5;" x="171.585593" xlink:href="#mc0ab072b0e" y="464.149805"/>
     <use style="stroke:#000000;stroke-width:1.5;" x="181.548475" xlink:href="#mc0ab072b0e" y="460.059846"/>
     <use style="stroke:#000000;stroke-width:1.5;" x="191.511356" xlink:href="#mc0ab072b0e" y="454.16934"/>
     <use style="stroke:#000000;stroke-width:1.5;" x="201.474237" xlink:href="#mc0ab072b0e" y="447.579882"/>
     <use style="stroke:#000000;stroke-width:1.5;" x="211.437119" xlink:href="#mc0ab072b0e" y="439.373963"/>
     <use style="stroke:#000000;stroke-width:1.5;" x="221.4" xlink:href="#mc0ab072b0e" y="430.731464"/>
     <use style="stroke:#000000;stroke-width:1.5;" x="231.362881" xlink:href="#mc0ab072b0e" y="419.765956"/>
     <use style="stroke:#000000;stroke-width:1.5;" x="241.325763" xlink:href="#mc0ab072b0e" y="409.247311"/>
     <use style="stroke:#000000;stroke-width:1.5;" x="251.288644" xlink:href="#mc0ab072b0e" y="395.348041"/>
     <use style="stroke:#000000;stroke-width:1.5;" x="261.251525" xlink:href="#mc0ab072b0e" y="380.195337"/>
     <use style="stroke:#000000;stroke-width:1.5;" x="271.214407" xlink:href="#mc0ab072b0e" y="364.463985"/>
     <use style="stroke:#000000;stroke-width:1.5;" x="281.177288" xlink:href="#mc0ab072b0e" y="350.563479"/>
     <use style="stroke:#000000;stroke-width:1.5;" x="291.140169" xlink:href="#mc0ab072b0e" y="336.066368"/>
     <use style="stroke:#000000;stroke-width:1.5;" x="301.103051" xlink:href="#mc0ab072b0e" y="320.006094"/>
     <use style="stroke:#000000;stroke-width:1.5;" x="311.065932" xlink:href="#mc0ab072b0e" y="306.080878"/>
     <use style="stroke:#000000;stroke-width:1.5;" x="321.028813" xlink:href="#mc0ab072b0e" y="291.652615"/>
     <use style="stroke:#000000;stroke-width:1.5;" x="330.991695" xlink:href="#mc0ab072b0e" y="279.401699"/>
     <use style="stroke:#000000;stroke-width:1.5;" x="340.954576" xlink:href="#mc0ab072b0e" y="267.859354"/>
     <use style="stroke:#000000;stroke-width:1.5;" x="350.917457" xlink:href="#mc0ab072b0e" y="257.401865"/>
     <use style="stroke:#000000;stroke-width:1.5;" x="360.880339" xlink:href="#mc0ab072b0e" y="247.39343"/>
     <use style="stroke:#000000;stroke-width:1.5;" x="370.84322" xlink:href="#mc0ab072b0e" y="239.113034"/>
    </g>
   </g>
   <g id="PathCollection_3">
    <defs>
     <path d="M 0 -2.738613 
L -2.738613 2.738613 
L 2.738613 2.738613 
z
" id="mfa5439e78c" style="stroke:#000000;"/>
    </defs>
    <g clip-path="url(#p041fc9d3df)">
     <use style="stroke:#000000;" x="71.95678" xlink:href="#mfa5439e78c" y="478.86165"/>
     <use style="stroke:#000000;" x="81.919661" xlink:href="#mfa5439e78c" y="479.224157"/>
     <use style="stroke:#000000;" x="91.882543" xlink:href="#mfa5439e78c" y="478.680917"/>
     <use style="stroke:#000000;" x="101.845424" xlink:href="#mfa5439e78c" y="478.500529"/>
     <use style="stroke:#000000;" x="111.808305" xlink:href="#mfa5439e78c" y="478.140784"/>
     <use style="stroke:#000000;" x="121.771187" xlink:href="#mfa5439e78c" y="477.247372"/>
     <use style="stroke:#000000;" x="131.734068" xlink:href="#mfa5439e78c" y="475.485511"/>
     <use style="stroke:#000000;" x="141.696949" xlink:href="#mfa5439e78c" y="460.356806"/>
     <use style="stroke:#000000;" x="151.659831" xlink:href="#mfa5439e78c" y="473.072858"/>
     <use style="stroke:#000000;" x="161.622712" xlink:href="#mfa5439e78c" y="471.21952"/>
     <use style="stroke:#000000;" x="171.585593" xlink:href="#mfa5439e78c" y="467.779256"/>
     <use style="stroke:#000000;" x="181.548475" xlink:href="#mfa5439e78c" y="464.771077"/>
     <use style="stroke:#000000;" x="191.511356" xlink:href="#mfa5439e78c" y="456.85348"/>
     <use style="stroke:#000000;" x="201.474237" xlink:href="#mfa5439e78c" y="451.559389"/>
     <use style="stroke:#000000;" x="211.437119" xlink:href="#mfa5439e78c" y="446.803716"/>
     <use style="stroke:#000000;" x="221.4" xlink:href="#mfa5439e78c" y="437.370942"/>
     <use style="stroke:#000000;" x="231.362881" xlink:href="#mfa5439e78c" y="427.002661"/>
     <use style="stroke:#000000;" x="241.325763" xlink:href="#mfa5439e78c" y="416.065948"/>
     <use style="stroke:#000000;" x="251.288644" xlink:href="#mfa5439e78c" y="404.355937"/>
     <use style="stroke:#000000;" x="261.251525" xlink:href="#mfa5439e78c" y="391.254329"/>
     <use style="stroke:#000000;" x="271.214407" xlink:href="#mfa5439e78c" y="378.805663"/>
     <use style="stroke:#000000;" x="281.177288" xlink:href="#mfa5439e78c" y="363.33945"/>
     <use style="stroke:#000000;" x="291.140169" xlink:href="#mfa5439e78c" y="347.994963"/>
     <use style="stroke:#000000;" x="301.103051" xlink:href="#mfa5439e78c" y="337.351191"/>
     <use style="stroke:#000000;" x="311.065932" xlink:href="#mfa5439e78c" y="324.802079"/>
     <use style="stroke:#000000;" x="321.028813" xlink:href="#mfa5439e78c" y="314.739375"/>
     <use style="stroke:#000000;" x="330.991695" xlink:href="#mfa5439e78c" y="305.964831"/>
     <use style="stroke:#000000;" x="340.954576" xlink:href="#mfa5439e78c" y="297.061981"/>
     <use style="stroke:#000000;" x="350.917457" xlink:href="#mfa5439e78c" y="289.363367"/>
     <use style="stroke:#000000;" x="360.880339" xlink:href="#mfa5439e78c" y="282.878974"/>
     <use style="stroke:#000000;" x="370.84322" xlink:href="#mfa5439e78c" y="277.40946"/>
    </g>
   </g>
   <g id="PathCollection_4">
    <defs>
     <path d="M -2.738613 2.738613 
L 2.738613 2.738613 
L 2.738613 -2.738613 
L -2.738613 -2.738613 
z
" id="m5f21fb0556" style="stroke:#000000;"/>
    </defs>
    <g clip-path="url(#p041fc9d3df)">
     <use style="stroke:#000000;" x="71.95678" xlink:href="#m5f21fb0556" y="478.86165"/>
     <use style="stroke:#000000;" x="81.919661" xlink:href="#m5f21fb0556" y="479.04273"/>
     <use style="stroke:#000000;" x="91.882543" xlink:href="#m5f21fb0556" y="478.500529"/>
     <use style="stroke:#000000;" x="101.845424" xlink:href="#m5f21fb0556" y="477.782404"/>
     <use style="stroke:#000000;" x="111.808305" xlink:href="#m5f21fb0556" y="477.961424"/>
     <use style="stroke:#000000;" x="121.771187" xlink:href="#m5f21fb0556" y="476.362333"/>
     <use style="stroke:#000000;" x="131.734068" xlink:href="#m5f21fb0556" y="476.010626"/>
     <use style="stroke:#000000;" x="141.696949" xlink:href="#m5f21fb0556" y="475.485511"/>
     <use style="stroke:#000000;" x="151.659831" xlink:href="#m5f21fb0556" y="474.789869"/>
     <use style="stroke:#000000;" x="161.622712" xlink:href="#m5f21fb0556" y="474.789869"/>
     <use style="stroke:#000000;" x="171.585593" xlink:href="#m5f21fb0556" y="473.072858"/>
     <use style="stroke:#000000;" x="181.548475" xlink:href="#m5f21fb0556" y="471.88926"/>
     <use style="stroke:#000000;" x="191.511356" xlink:href="#m5f21fb0556" y="470.720313"/>
     <use style="stroke:#000000;" x="201.474237" xlink:href="#m5f21fb0556" y="468.101553"/>
     <use style="stroke:#000000;" x="211.437119" xlink:href="#m5f21fb0556" y="464.771077"/>
     <use style="stroke:#000000;" x="221.4" xlink:href="#m5f21fb0556" y="464.30474"/>
     <use style="stroke:#000000;" x="231.362881" xlink:href="#m5f21fb0556" y="457.861927"/>
     <use style="stroke:#000000;" x="241.325763" xlink:href="#m5f21fb0556" y="455.997586"/>
     <use style="stroke:#000000;" x="251.288644" xlink:href="#m5f21fb0556" y="452.512578"/>
     <use style="stroke:#000000;" x="261.251525" xlink:href="#m5f21fb0556" y="447.709866"/>
     <use style="stroke:#000000;" x="271.214407" xlink:href="#m5f21fb0556" y="446.418013"/>
     <use style="stroke:#000000;" x="281.177288" xlink:href="#m5f21fb0556" y="441.66409"/>
     <use style="stroke:#000000;" x="291.140169" xlink:href="#m5f21fb0556" y="439.373963"/>
     <use style="stroke:#000000;" x="301.103051" xlink:href="#m5f21fb0556" y="438.073049"/>
     <use style="stroke:#000000;" x="311.065932" xlink:href="#m5f21fb0556" y="433.599977"/>
     <use style="stroke:#000000;" x="321.028813" xlink:href="#m5f21fb0556" y="432.265213"/>
     <use style="stroke:#000000;" x="330.991695" xlink:href="#m5f21fb0556" y="425.860522"/>
     <use style="stroke:#000000;" x="340.954576" xlink:href="#m5f21fb0556" y="430.40602"/>
     <use style="stroke:#000000;" x="350.917457" xlink:href="#m5f21fb0556" y="427.842071"/>
     <use style="stroke:#000000;" x="360.880339" xlink:href="#m5f21fb0556" y="427.631518"/>
     <use style="stroke:#000000;" x="370.84322" xlink:href="#m5f21fb0556" y="422.714156"/>
    </g>
   </g>
   <g id="matplotlib.axis_1">
    <g id="xtick_1">
     <g id="line2d_1">
      <defs>
       <path d="M 0 0 
L 0 3.5 
" id="m9ac8a4d7f3" style="stroke:#000000;stroke-width:0.8;"/>
      </defs>
      <g>
       <use style="stroke:#000000;stroke-width:0.8;" x="61.993899" xlink:href="#m9ac8a4d7f3" y="504"/>
      </g>
     </g>
     <g id="text_1">
      <!-- 0 -->
      <defs>
       <path d="M 31.78125 66.40625 
Q 24.171875 66.40625 20.328125 58.90625 
Q 16.5 51.421875 16.5 36.375 
Q 16.5 21.390625 20.328125 13.890625 
Q 24.171875 6.390625 31.78125 6.390625 
Q 39.453125 6.390625 43.28125 13.890625 
Q 47.125 21.390625 47.125 36.375 
Q 47.125 51.421875 43.28125 58.90625 
Q 39.453125 66.40625 31.78125 66.40625 
z
M 31.78125 74.21875 
Q 44.046875 74.21875 50.515625 64.515625 
Q 56.984375 54.828125 56.984375 36.375 
Q 56.984375 17.96875 50.515625 8.265625 
Q 44.046875 -1.421875 31.78125 -1.421875 
Q 19.53125 -1.421875 13.0625 8.265625 
Q 6.59375 17.96875 6.59375 36.375 
Q 6.59375 54.828125 13.0625 64.515625 
Q 19.53125 74.21875 31.78125 74.21875 
z
" id="DejaVuSans-30"/>
      </defs>
      <g transform="translate(58.812649 518.598438)scale(0.1 -0.1)">
       <use xlink:href="#DejaVuSans-30"/>
      </g>
     </g>
    </g>
    <g id="xtick_2">
     <g id="line2d_2">
      <g>
       <use style="stroke:#000000;stroke-width:0.8;" x="101.845424" xlink:href="#m9ac8a4d7f3" y="504"/>
      </g>
     </g>
     <g id="text_2">
      <!-- 2 -->
      <defs>
       <path d="M 19.1875 8.296875 
L 53.609375 8.296875 
L 53.609375 0 
L 7.328125 0 
L 7.328125 8.296875 
Q 12.9375 14.109375 22.625 23.890625 
Q 32.328125 33.6875 34.8125 36.53125 
Q 39.546875 41.84375 41.421875 45.53125 
Q 43.3125 49.21875 43.3125 52.78125 
Q 43.3125 58.59375 39.234375 62.25 
Q 35.15625 65.921875 28.609375 65.921875 
Q 23.96875 65.921875 18.8125 64.3125 
Q 13.671875 62.703125 7.8125 59.421875 
L 7.8125 69.390625 
Q 13.765625 71.78125 18.9375 73 
Q 24.125 74.21875 28.421875 74.21875 
Q 39.75 74.21875 46.484375 68.546875 
Q 53.21875 62.890625 53.21875 53.421875 
Q 53.21875 48.921875 51.53125 44.890625 
Q 49.859375 40.875 45.40625 35.40625 
Q 44.1875 33.984375 37.640625 27.21875 
Q 31.109375 20.453125 19.1875 8.296875 
z
" id="DejaVuSans-32"/>
      </defs>
      <g transform="translate(98.664174 518.598438)scale(0.1 -0.1)">
       <use xlink:href="#DejaVuSans-32"/>
      </g>
     </g>
    </g>
    <g id="xtick_3">
     <g id="line2d_3">
      <g>
       <use style="stroke:#000000;stroke-width:0.8;" x="141.696949" xlink:href="#m9ac8a4d7f3" y="504"/>
      </g>
     </g>
     <g id="text_3">
      <!-- 4 -->
      <defs>
       <path d="M 37.796875 64.3125 
L 12.890625 25.390625 
L 37.796875 25.390625 
z
M 35.203125 72.90625 
L 47.609375 72.90625 
L 47.609375 25.390625 
L 58.015625 25.390625 
L 58.015625 17.1875 
L 47.609375 17.1875 
L 47.609375 0 
L 37.796875 0 
L 37.796875 17.1875 
L 4.890625 17.1875 
L 4.890625 26.703125 
z
" id="DejaVuSans-34"/>
      </defs>
      <g transform="translate(138.515699 518.598438)scale(0.1 -0.1)">
       <use xlink:href="#DejaVuSans-34"/>
      </g>
     </g>
    </g>
    <g id="xtick_4">
     <g id="line2d_4">
      <g>
       <use style="stroke:#000000;stroke-width:0.8;" x="181.548475" xlink:href="#m9ac8a4d7f3" y="504"/>
      </g>
     </g>
     <g id="text_4">
      <!-- 6 -->
      <defs>
       <path d="M 33.015625 40.375 
Q 26.375 40.375 22.484375 35.828125 
Q 18.609375 31.296875 18.609375 23.390625 
Q 18.609375 15.53125 22.484375 10.953125 
Q 26.375 6.390625 33.015625 6.390625 
Q 39.65625 6.390625 43.53125 10.953125 
Q 47.40625 15.53125 47.40625 23.390625 
Q 47.40625 31.296875 43.53125 35.828125 
Q 39.65625 40.375 33.015625 40.375 
z
M 52.59375 71.296875 
L 52.59375 62.3125 
Q 48.875 64.0625 45.09375 64.984375 
Q 41.3125 65.921875 37.59375 65.921875 
Q 27.828125 65.921875 22.671875 59.328125 
Q 17.53125 52.734375 16.796875 39.40625 
Q 19.671875 43.65625 24.015625 45.921875 
Q 28.375 48.1875 33.59375 48.1875 
Q 44.578125 48.1875 50.953125 41.515625 
Q 57.328125 34.859375 57.328125 23.390625 
Q 57.328125 12.15625 50.6875 5.359375 
Q 44.046875 -1.421875 33.015625 -1.421875 
Q 20.359375 -1.421875 13.671875 8.265625 
Q 6.984375 17.96875 6.984375 36.375 
Q 6.984375 53.65625 15.1875 63.9375 
Q 23.390625 74.21875 37.203125 74.21875 
Q 40.921875 74.21875 44.703125 73.484375 
Q 48.484375 72.75 52.59375 71.296875 
z
" id="DejaVuSans-36"/>
      </defs>
      <g transform="translate(178.367225 518.598438)scale(0.1 -0.1)">
       <use xlink:href="#DejaVuSans-36"/>
      </g>
     </g>
    </g>
    <g id="xtick_5">
     <g id="line2d_5">
      <g>
       <use style="stroke:#000000;stroke-width:0.8;" x="221.4" xlink:href="#m9ac8a4d7f3" y="504"/>
      </g>
     </g>
     <g id="text_5">
      <!-- 8 -->
      <defs>
       <path d="M 31.78125 34.625 
Q 24.75 34.625 20.71875 30.859375 
Q 16.703125 27.09375 16.703125 20.515625 
Q 16.703125 13.921875 20.71875 10.15625 
Q 24.75 6.390625 31.78125 6.390625 
Q 38.8125 6.390625 42.859375 10.171875 
Q 46.921875 13.96875 46.921875 20.515625 
Q 46.921875 27.09375 42.890625 30.859375 
Q 38.875 34.625 31.78125 34.625 
z
M 21.921875 38.8125 
Q 15.578125 40.375 12.03125 44.71875 
Q 8.5 49.078125 8.5 55.328125 
Q 8.5 64.0625 14.71875 69.140625 
Q 20.953125 74.21875 31.78125 74.21875 
Q 42.671875 74.21875 48.875 69.140625 
Q 55.078125 64.0625 55.078125 55.328125 
Q 55.078125 49.078125 51.53125 44.71875 
Q 48 40.375 41.703125 38.8125 
Q 48.828125 37.15625 52.796875 32.3125 
Q 56.78125 27.484375 56.78125 20.515625 
Q 56.78125 9.90625 50.3125 4.234375 
Q 43.84375 -1.421875 31.78125 -1.421875 
Q 19.734375 -1.421875 13.25 4.234375 
Q 6.78125 9.90625 6.78125 20.515625 
Q 6.78125 27.484375 10.78125 32.3125 
Q 14.796875 37.15625 21.921875 38.8125 
z
M 18.3125 54.390625 
Q 18.3125 48.734375 21.84375 45.5625 
Q 25.390625 42.390625 31.78125 42.390625 
Q 38.140625 42.390625 41.71875 45.5625 
Q 45.3125 48.734375 45.3125 54.390625 
Q 45.3125 60.0625 41.71875 63.234375 
Q 38.140625 66.40625 31.78125 66.40625 
Q 25.390625 66.40625 21.84375 63.234375 
Q 18.3125 60.0625 18.3125 54.390625 
z
" id="DejaVuSans-38"/>
      </defs>
      <g transform="translate(218.21875 518.598438)scale(0.1 -0.1)">
       <use xlink:href="#DejaVuSans-38"/>
      </g>
     </g>
    </g>
    <g id="xtick_6">
     <g id="line2d_6">
      <g>
       <use style="stroke:#000000;stroke-width:0.8;" x="261.251525" xlink:href="#m9ac8a4d7f3" y="504"/>
      </g>
     </g>
     <g id="text_6">
      <!-- 10 -->
      <defs>
       <path d="M 12.40625 8.296875 
L 28.515625 8.296875 
L 28.515625 63.921875 
L 10.984375 60.40625 
L 10.984375 69.390625 
L 28.421875 72.90625 
L 38.28125 72.90625 
L 38.28125 8.296875 
L 54.390625 8.296875 
L 54.390625 0 
L 12.40625 0 
z
" id="DejaVuSans-31"/>
      </defs>
      <g transform="translate(254.889025 518.598438)scale(0.1 -0.1)">
       <use xlink:href="#DejaVuSans-31"/>
       <use x="63.623047" xlink:href="#DejaVuSans-30"/>
      </g>
     </g>
    </g>
    <g id="xtick_7">
     <g id="line2d_7">
      <g>
       <use style="stroke:#000000;stroke-width:0.8;" x="301.103051" xlink:href="#m9ac8a4d7f3" y="504"/>
      </g>
     </g>
     <g id="text_7">
      <!-- 12 -->
      <g transform="translate(294.740551 518.598438)scale(0.1 -0.1)">
       <use xlink:href="#DejaVuSans-31"/>
       <use x="63.623047" xlink:href="#DejaVuSans-32"/>
      </g>
     </g>
    </g>
    <g id="xtick_8">
     <g id="line2d_8">
      <g>
       <use style="stroke:#000000;stroke-width:0.8;" x="340.954576" xlink:href="#m9ac8a4d7f3" y="504"/>
      </g>
     </g>
     <g id="text_8">
      <!-- 14 -->
      <g transform="translate(334.592076 518.598438)scale(0.1 -0.1)">
       <use xlink:href="#DejaVuSans-31"/>
       <use x="63.623047" xlink:href="#DejaVuSans-34"/>
      </g>
     </g>
    </g>
    <g id="xtick_9">
     <g id="line2d_9">
      <g>
       <use style="stroke:#000000;stroke-width:0.8;" x="380.806101" xlink:href="#m9ac8a4d7f3" y="504"/>
      </g>
     </g>
     <g id="text_9">
      <!-- 16 -->
      <g transform="translate(374.443601 518.598438)scale(0.1 -0.1)">
       <use xlink:href="#DejaVuSans-31"/>
       <use x="63.623047" xlink:href="#DejaVuSans-36"/>
      </g>
     </g>
    </g>
   </g>
   <g id="matplotlib.axis_2">
    <g id="ytick_1">
     <g id="line2d_10">
      <defs>
       <path d="M 0 0 
L -3.5 0 
" id="m656b47c8be" style="stroke:#000000;stroke-width:0.8;"/>
      </defs>
      <g>
       <use style="stroke:#000000;stroke-width:0.8;" x="54" xlink:href="#m656b47c8be" y="504"/>
      </g>
     </g>
     <g id="text_10">
      <!-- $\mathdefault{10^{-1}}$ -->
      <defs>
       <path d="M 10.59375 35.5 
L 73.1875 35.5 
L 73.1875 27.203125 
L 10.59375 27.203125 
z
" id="DejaVuSans-2212"/>
      </defs>
      <g transform="translate(23.5 507.799219)scale(0.1 -0.1)">
       <use transform="translate(0 0.684375)" xlink:href="#DejaVuSans-31"/>
       <use transform="translate(63.623047 0.684375)" xlink:href="#DejaVuSans-30"/>
       <use transform="translate(128.203125 38.965625)scale(0.7)" xlink:href="#DejaVuSans-2212"/>
       <use transform="translate(186.855469 38.965625)scale(0.7)" xlink:href="#DejaVuSans-31"/>
      </g>
     </g>
    </g>
    <g id="ytick_2">
     <g id="line2d_11">
      <g>
       <use style="stroke:#000000;stroke-width:0.8;" x="54" xlink:href="#m656b47c8be" y="286.56"/>
      </g>
     </g>
     <g id="text_11">
      <!-- $\mathdefault{10^{0}}$ -->
      <g transform="translate(29.4 290.359219)scale(0.1 -0.1)">
       <use transform="translate(0 0.765625)" xlink:href="#DejaVuSans-31"/>
       <use transform="translate(63.623047 0.765625)" xlink:href="#DejaVuSans-30"/>
       <use transform="translate(128.203125 39.046875)scale(0.7)" xlink:href="#DejaVuSans-30"/>
      </g>
     </g>
    </g>
    <g id="ytick_3">
     <g id="line2d_12">
      <g>
       <use style="stroke:#000000;stroke-width:0.8;" x="54" xlink:href="#m656b47c8be" y="69.12"/>
      </g>
     </g>
     <g id="text_12">
      <!-- $\mathdefault{10^{1}}$ -->
      <g transform="translate(29.4 72.919219)scale(0.1 -0.1)">
       <use transform="translate(0 0.684375)" xlink:href="#DejaVuSans-31"/>
       <use transform="translate(63.623047 0.684375)" xlink:href="#DejaVuSans-30"/>
       <use transform="translate(128.203125 38.965625)scale(0.7)" xlink:href="#DejaVuSans-31"/>
      </g>
     </g>
    </g>
    <g id="ytick_4">
     <g id="line2d_13">
      <defs>
       <path d="M 0 0 
L -2 0 
" id="ma92cd9dfad" style="stroke:#000000;stroke-width:0.6;"/>
      </defs>
      <g>
       <use style="stroke:#000000;stroke-width:0.6;" x="54" xlink:href="#ma92cd9dfad" y="438.544038"/>
      </g>
     </g>
    </g>
    <g id="ytick_5">
     <g id="line2d_14">
      <g>
       <use style="stroke:#000000;stroke-width:0.6;" x="54" xlink:href="#ma92cd9dfad" y="400.254754"/>
      </g>
     </g>
    </g>
    <g id="ytick_6">
     <g id="line2d_15">
      <g>
       <use style="stroke:#000000;stroke-width:0.6;" x="54" xlink:href="#ma92cd9dfad" y="373.088075"/>
      </g>
     </g>
    </g>
    <g id="ytick_7">
     <g id="line2d_16">
      <g>
       <use style="stroke:#000000;stroke-width:0.6;" x="54" xlink:href="#ma92cd9dfad" y="352.015962"/>
      </g>
     </g>
    </g>
    <g id="ytick_8">
     <g id="line2d_17">
      <g>
       <use style="stroke:#000000;stroke-width:0.6;" x="54" xlink:href="#ma92cd9dfad" y="334.798792"/>
      </g>
     </g>
    </g>
    <g id="ytick_9">
     <g id="line2d_18">
      <g>
       <use style="stroke:#000000;stroke-width:0.6;" x="54" xlink:href="#ma92cd9dfad" y="320.241882"/>
      </g>
     </g>
    </g>
    <g id="ytick_10">
     <g id="line2d_19">
      <g>
       <use style="stroke:#000000;stroke-width:0.6;" x="54" xlink:href="#ma92cd9dfad" y="307.632113"/>
      </g>
     </g>
    </g>
    <g id="ytick_11">
     <g id="line2d_20">
      <g>
       <use style="stroke:#000000;stroke-width:0.6;" x="54" xlink:href="#ma92cd9dfad" y="296.509509"/>
      </g>
     </g>
    </g>
    <g id="ytick_12">
     <g id="line2d_21">
      <g>
       <use style="stroke:#000000;stroke-width:0.6;" x="54" xlink:href="#ma92cd9dfad" y="221.104038"/>
      </g>
     </g>
    </g>
    <g id="ytick_13">
     <g id="line2d_22">
      <g>
       <use style="stroke:#000000;stroke-width:0.6;" x="54" xlink:href="#ma92cd9dfad" y="182.814754"/>
      </g>
     </g>
    </g>
    <g id="ytick_14">
     <g id="line2d_23">
      <g>
       <use style="stroke:#000000;stroke-width:0.6;" x="54" xlink:href="#ma92cd9dfad" y="155.648075"/>
      </g>
     </g>
    </g>
    <g id="ytick_15">
     <g id="line2d_24">
      <g>
       <use style="stroke:#000000;stroke-width:0.6;" x="54" xlink:href="#ma92cd9dfad" y="134.575962"/>
      </g>
     </g>
    </g>
    <g id="ytick_16">
     <g id="line2d_25">
      <g>
       <use style="stroke:#000000;stroke-width:0.6;" x="54" xlink:href="#ma92cd9dfad" y="117.358792"/>
      </g>
     </g>
    </g>
    <g id="ytick_17">
     <g id="line2d_26">
      <g>
       <use style="stroke:#000000;stroke-width:0.6;" x="54" xlink:href="#ma92cd9dfad" y="102.801882"/>
      </g>
     </g>
    </g>
    <g id="ytick_18">
     <g id="line2d_27">
      <g>
       <use style="stroke:#000000;stroke-width:0.6;" x="54" xlink:href="#ma92cd9dfad" y="90.192113"/>
      </g>
     </g>
    </g>
    <g id="ytick_19">
     <g id="line2d_28">
      <g>
       <use style="stroke:#000000;stroke-width:0.6;" x="54" xlink:href="#ma92cd9dfad" y="79.069509"/>
      </g>
     </g>
    </g>
   </g>
   <g id="patch_3">
    <path d="M 54 504 
L 54 69.12 
" style="fill:none;stroke:#000000;stroke-linecap:square;stroke-linejoin:miter;stroke-width:0.8;"/>
   </g>
   <g id="patch_4">
    <path d="M 388.8 504 
L 388.8 69.12 
" style="fill:none;stroke:#000000;stroke-linecap:square;stroke-linejoin:miter;stroke-width:0.8;"/>
   </g>
   <g id="patch_5">
    <path d="M 54 504 
L 388.8 504 
" style="fill:none;stroke:#000000;stroke-linecap:square;stroke-linejoin:miter;stroke-width:0.8;"/>
   </g>
   <g id="patch_6">
    <path d="M 54 69.12 
L 388.8 69.12 
" style="fill:none;stroke:#000000;stroke-linecap:square;stroke-linejoin:miter;stroke-width:0.8;"/>
   </g>
  </g>
 </g>
 <defs>
  <clipPath id="p041fc9d3df">
   <rect height="434.88" width="334.8" x="54" y="69.12"/>
  </clipPath>
 </defs>
</svg>
